<svg width="14" height="10" viewBox="0 0 14 10" fill="none" xmlns="http://www.w3.org/2000/svg">
<path fill-rule="evenodd" clip-rule="evenodd" d="M13.9999 5.00015C13.9999 4.72401 13.7761 4.50015 13.4999 4.50015H1.70692L4.85392 1.35415C4.98039 1.22768 5.02978 1.04335 4.98349 0.870582C4.9372 0.697818 4.80225 0.562874 4.62949 0.516582C4.45673 0.47029 4.27239 0.519683 4.14592 0.646155L0.145917 4.64615C0.0518755 4.73996 -0.000976562 4.86733 -0.000976562 5.00015C-0.000976563 5.13298 0.0518755 5.26035 0.145917 5.35415L4.14592 9.35415C4.27239 9.48063 4.45673 9.53002 4.62949 9.48373C4.80225 9.43744 4.9372 9.30249 4.98349 9.12973C5.02978 8.95696 4.98039 8.77263 4.85392 8.64615L1.70692 5.50015H13.4999C13.7761 5.50015 13.9999 5.2763 13.9999 5.00015Z" fill="white"/>
</svg>
