<svg width="14" height="10" viewBox="0 0 14 10" fill="none" xmlns="http://www.w3.org/2000/svg">
<path fill-rule="evenodd" clip-rule="evenodd" d="M0 5.00014C0 4.724 0.223858 4.50014 0.5 4.50014H12.293L9.146 1.35414C8.95049 1.15863 8.95049 0.841652 9.146 0.646143C9.34151 0.450635 9.65849 0.450635 9.854 0.646143L13.854 4.64614C13.948 4.73995 14.0009 4.86732 14.0009 5.00014C14.0009 5.13297 13.948 5.26034 13.854 5.35414L9.854 9.35414C9.65849 9.54965 9.34151 9.54965 9.146 9.35414C8.95049 9.15863 8.95049 8.84165 9.146 8.64614L12.293 5.50014H0.5C0.223858 5.50014 0 5.27629 0 5.00014Z" fill="white"/>
</svg>
